/vscmnt/brussel_pixiu_data/_data_brussel/112/vsc11236/PredSimResults/SUBJ09mtu3D/weighted-LRposFixed/expIG/worker_02.mot
version=1
nRows=4
nColumns=50
inDegrees=yes
endheader
                time	         pelvis_tilt	         pelvis_list	     pelvis_rotation	           pelvis_tx	           pelvis_ty	           pelvis_tz	       hip_flexion_r	     hip_adduction_r	      hip_rotation_r	        knee_angle_r	       ankle_angle_r	         mtp_angle_r	       hip_flexion_l	     hip_adduction_l	      hip_rotation_l	        knee_angle_l	       ankle_angle_l	         mtp_angle_l	    lumbar_extension	      lumbar_bending	     lumbar_rotation	 ercspn_r/activation	 intobl_r/activation	 extobl_r/activation	    abd_r/activation	    add_r/activation	hamstrings_r/activation	bifemsh_r/activation	glut_max_r/activation	iliopsoas_r/activation	rect_fem_r/activation	  vasti_r/activation	gastroc_r/activation	 soleus_r/activation	tib_ant_r/activation	 ercspn_l/activation	 intobl_l/activation	 extobl_l/activation	    abd_l/activation	    add_l/activation	hamstrings_l/activation	bifemsh_l/activation	glut_max_l/activation	iliopsoas_l/activation	rect_fem_l/activation	  vasti_l/activation	gastroc_l/activation	 soleus_l/activation	tib_ant_l/activation	
          1.27744762	         -7.45765274	         -4.44702328	          7.53993325	          1.49461372	          0.98090054	         -0.01254535	         30.97238746	          1.50850144	         -5.17892054	         -2.92536780	          6.23563926	          0.22702299	        -11.19002936	         -4.62092496	          5.23580975	         -6.86111863	         10.53512881	         27.87275151	         -0.53481026	          3.04026976	         -3.52769304	          0.08047765	          0.10971261	          0.02972922	          0.01000361	          0.11464112	          0.12283757	          0.19107415	          0.05333387	          0.11525752	          0.00999999	          0.00999999	          0.02539953	          0.01471144	          0.26447842	          0.07865059	          0.00999999	          0.00999999	          0.05014043	          0.02802980	          0.01749377	          0.12100943	          0.03913012	          0.49011522	          0.01000000	          0.00999999	          0.31908388	          0.27225954	          0.01471144	
          1.29022210	         -7.54092469	         -4.38985479	          7.50733834	          1.51285454	          0.97896322	         -0.01227193	         30.99529282	          1.60928975	         -4.95336520	         -4.67358853	          5.83540545	          0.19908416	        -11.31356366	         -4.57251821	          4.84133085	         -8.45386535	          9.81525805	         29.91042556	         -0.23250145	          3.37241723	         -3.63398339	          0.06635100	          0.09877209	          0.02451070	          0.04610948	          0.09451758	          0.10887011	          0.15753393	          0.10048022	          0.09502578	          0.00999999	          0.00999999	          0.02094102	          0.01212907	          0.30710381	          0.07587109	          0.00999999	          0.00999999	          0.04133902	          0.03001326	          0.01988329	          0.09976803	          0.03226141	          0.46934679	          0.00999999	          0.01636258	          0.29061617	          0.25305834	          0.01212907	
          1.30299658	         -7.60586927	         -4.32825810	          7.42625970	          1.53133329	          0.97746022	         -0.01190834	         30.82328735	          1.71366790	         -4.75028731	         -6.08650586	          5.24185894	          0.18780614	        -11.24482032	         -4.50646085	          4.42524646	        -10.42961554	          8.89359987	         32.00954724	          0.07374946	          3.70721628	         -3.70840074	          0.07002421	          0.08143412	          0.02020821	          0.10589989	          0.10229486	          0.09112904	          0.12988119	          0.14186429	          0.07834541	          0.00999999	          0.00999999	          0.01726513	          0.00999999	          0.34654657	          0.09719640	          0.00999999	          0.00999999	          0.03408257	          0.02664267	          0.02252888	          0.08225524	          0.02659840	          0.44733116	          0.01000004	          0.01471144	          0.23960283	          0.21284041	          0.00999999	
          1.31577105	         -7.65255228	         -4.25904325	          7.30085090	          1.54974928	          0.97659215	         -0.01145528	         30.55747155	          1.83159131	         -4.57184511	         -7.36188596	          4.67831678	          0.15700751	        -10.89637145	         -4.41666456	          3.99466243	        -12.90361405	          7.75684096	         34.06191067	          0.35325728	          4.04151838	         -3.74998610	          0.06932048	          0.06713957	          0.01666096	          0.14745441	          0.12623030	          0.07513269	          0.10708248	          0.17909013	          0.06459304	          0.00999999	          0.00999999	          0.01423450	          0.00999999	          0.37321658	          0.13082695	          0.00999999	          0.00999999	          0.02809988	          0.04133359	          0.01857428	          0.06781655	          0.02192944	          0.41426453	          0.00999999	          0.01212907	          0.19754412	          0.17547944	          0.00999999	
